%TF.GenerationSoftware,KiCad,Pcbnew,8.0.7*%
%TF.CreationDate,2025-10-03T18:14:02-07:00*%
%TF.ProjectId,HV Power Supply,48562050-6f77-4657-9220-537570706c79,rev?*%
%TF.SameCoordinates,Original*%
%TF.FileFunction,Copper,L1,Top*%
%TF.FilePolarity,Positive*%
%FSLAX46Y46*%
G04 Gerber Fmt 4.6, Leading zero omitted, Abs format (unit mm)*
G04 Created by KiCad (PCBNEW 8.0.7) date 2025-10-03 18:14:02*
%MOMM*%
%LPD*%
G01*
G04 APERTURE LIST*
%TA.AperFunction,ComponentPad*%
%ADD10C,7.000000*%
%TD*%
%TA.AperFunction,ComponentPad*%
%ADD11C,1.600000*%
%TD*%
%TA.AperFunction,ComponentPad*%
%ADD12R,3.200000X3.200000*%
%TD*%
%TA.AperFunction,ComponentPad*%
%ADD13O,3.200000X3.200000*%
%TD*%
%TA.AperFunction,Conductor*%
%ADD14C,0.200000*%
%TD*%
G04 APERTURE END LIST*
D10*
%TO.P,H4,1,1*%
%TO.N,Net-(D7-K)*%
X257000000Y-90500000D03*
%TD*%
D11*
%TO.P,C7,1*%
%TO.N,Net-(D5-K)*%
X202500000Y-93500000D03*
%TO.P,C7,2*%
%TO.N,Net-(D7-K)*%
X207500000Y-93500000D03*
%TD*%
%TO.P,C5,1*%
%TO.N,Net-(D3-K)*%
X159000000Y-93500000D03*
%TO.P,C5,2*%
%TO.N,Net-(D5-K)*%
X164000000Y-93500000D03*
%TD*%
D10*
%TO.P,H3,1,1*%
%TO.N,Net-(D8-K)*%
X257000000Y-113500000D03*
%TD*%
D11*
%TO.P,C1,1*%
%TO.N,Net-(C1-Pad1)*%
X77000000Y-93000000D03*
%TO.P,C1,2*%
%TO.N,Net-(D1-K)*%
X82000000Y-93000000D03*
%TD*%
%TO.P,C4,1*%
%TO.N,Net-(D2-K)*%
X140000000Y-109500000D03*
%TO.P,C4,2*%
%TO.N,Net-(D4-K)*%
X145000000Y-109500000D03*
%TD*%
D12*
%TO.P,D1,1,K*%
%TO.N,Net-(D1-K)*%
X74880000Y-109000000D03*
D13*
%TO.P,D1,2,A*%
%TO.N,Net-(D1-A)*%
X90120000Y-109000000D03*
%TD*%
%TO.P,D3,2,A*%
%TO.N,Net-(D2-K)*%
X130120000Y-110000000D03*
D12*
%TO.P,D3,1,K*%
%TO.N,Net-(D3-K)*%
X114880000Y-110000000D03*
%TD*%
D13*
%TO.P,D6,2,A*%
%TO.N,Net-(D5-K)*%
X190120000Y-93500000D03*
D12*
%TO.P,D6,1,K*%
%TO.N,Net-(D6-K)*%
X174880000Y-93500000D03*
%TD*%
D13*
%TO.P,D5,2,A*%
%TO.N,Net-(D4-K)*%
X171120000Y-109000000D03*
D12*
%TO.P,D5,1,K*%
%TO.N,Net-(D5-K)*%
X155880000Y-109000000D03*
%TD*%
D11*
%TO.P,C8,2*%
%TO.N,Net-(D8-K)*%
X227500000Y-108500000D03*
%TO.P,C8,1*%
%TO.N,Net-(D6-K)*%
X222500000Y-108500000D03*
%TD*%
%TO.P,C3,1*%
%TO.N,Net-(D1-K)*%
X116000000Y-93500000D03*
%TO.P,C3,2*%
%TO.N,Net-(D3-K)*%
X121000000Y-93500000D03*
%TD*%
D13*
%TO.P,D7,2,A*%
%TO.N,Net-(D6-K)*%
X213620000Y-109000000D03*
D12*
%TO.P,D7,1,K*%
%TO.N,Net-(D7-K)*%
X198380000Y-109000000D03*
%TD*%
D13*
%TO.P,D4,2,A*%
%TO.N,Net-(D3-K)*%
X147500000Y-93500000D03*
D12*
%TO.P,D4,1,K*%
%TO.N,Net-(D4-K)*%
X132260000Y-93500000D03*
%TD*%
D11*
%TO.P,C2,1*%
%TO.N,Net-(D1-A)*%
X100000000Y-109000000D03*
%TO.P,C2,2*%
%TO.N,Net-(D2-K)*%
X105000000Y-109000000D03*
%TD*%
D13*
%TO.P,D8,2,A*%
%TO.N,Net-(D7-K)*%
X233620000Y-93000000D03*
D12*
%TO.P,D8,1,K*%
%TO.N,Net-(D8-K)*%
X218380000Y-93000000D03*
%TD*%
%TO.P,D2,1,K*%
%TO.N,Net-(D2-K)*%
X90880000Y-93500000D03*
D13*
%TO.P,D2,2,A*%
%TO.N,Net-(D1-K)*%
X106120000Y-93500000D03*
%TD*%
D11*
%TO.P,C6,1*%
%TO.N,Net-(D4-K)*%
X183500000Y-109000000D03*
%TO.P,C6,2*%
%TO.N,Net-(D6-K)*%
X188500000Y-109000000D03*
%TD*%
D10*
%TO.P,H1,1,1*%
%TO.N,Net-(C1-Pad1)*%
X55500000Y-93000000D03*
%TD*%
%TO.P,H2,1,1*%
%TO.N,Net-(D1-A)*%
X55500000Y-109000000D03*
%TD*%
D14*
%TO.N,Net-(D2-K)*%
X130120000Y-110000000D02*
X139500000Y-110000000D01*
X139500000Y-110000000D02*
X140000000Y-109500000D01*
%TO.N,Net-(D7-K)*%
X233620000Y-93000000D02*
X254500000Y-93000000D01*
X254500000Y-93000000D02*
X257000000Y-90500000D01*
%TO.N,Net-(D8-K)*%
X227500000Y-108500000D02*
X252000000Y-108500000D01*
X252000000Y-108500000D02*
X257000000Y-113500000D01*
%TO.N,Net-(D6-K)*%
X213620000Y-109000000D02*
X222000000Y-109000000D01*
X222000000Y-109000000D02*
X222500000Y-108500000D01*
%TO.N,Net-(D8-K)*%
X218380000Y-93000000D02*
X218380000Y-99380000D01*
X218380000Y-99380000D02*
X227500000Y-108500000D01*
%TO.N,Net-(D7-K)*%
X207500000Y-93500000D02*
X215000000Y-86000000D01*
X215000000Y-86000000D02*
X226620000Y-86000000D01*
X226620000Y-86000000D02*
X233620000Y-93000000D01*
%TO.N,Net-(D5-K)*%
X190120000Y-93500000D02*
X202500000Y-93500000D01*
%TO.N,Net-(D7-K)*%
X198380000Y-109000000D02*
X198380000Y-102620000D01*
X198380000Y-102620000D02*
X207500000Y-93500000D01*
%TO.N,Net-(D6-K)*%
X188500000Y-109000000D02*
X198500000Y-119000000D01*
X198500000Y-119000000D02*
X203620000Y-119000000D01*
X203620000Y-119000000D02*
X213620000Y-109000000D01*
%TO.N,Net-(D4-K)*%
X171120000Y-109000000D02*
X183500000Y-109000000D01*
%TO.N,Net-(D6-K)*%
X174880000Y-93500000D02*
X174880000Y-95380000D01*
X174880000Y-95380000D02*
X188500000Y-109000000D01*
%TO.N,Net-(D5-K)*%
X166500000Y-93500000D02*
X172500000Y-87500000D01*
X184120000Y-87500000D02*
X190120000Y-93500000D01*
X164000000Y-93500000D02*
X166500000Y-93500000D01*
X172500000Y-87500000D02*
X184120000Y-87500000D01*
X155880000Y-109000000D02*
X155880000Y-101620000D01*
X155880000Y-101620000D02*
X164000000Y-93500000D01*
%TO.N,Net-(D4-K)*%
X153000000Y-117500000D02*
X167000000Y-117500000D01*
X145000000Y-109500000D02*
X153000000Y-117500000D01*
X167000000Y-117500000D02*
X171120000Y-113380000D01*
X171120000Y-113380000D02*
X171120000Y-109000000D01*
%TO.N,Net-(D3-K)*%
X147500000Y-93500000D02*
X159000000Y-93500000D01*
X123500000Y-93000000D02*
X129500000Y-87000000D01*
X121500000Y-93000000D02*
X123500000Y-93000000D01*
X129500000Y-87000000D02*
X141000000Y-87000000D01*
X121000000Y-93500000D02*
X121500000Y-93000000D01*
X141000000Y-87000000D02*
X147500000Y-93500000D01*
%TO.N,Net-(D4-K)*%
X132260000Y-93500000D02*
X132260000Y-96760000D01*
X132260000Y-96760000D02*
X145000000Y-109500000D01*
%TO.N,Net-(D3-K)*%
X114880000Y-110000000D02*
X114880000Y-99620000D01*
X114880000Y-99620000D02*
X121000000Y-93500000D01*
%TO.N,Net-(D2-K)*%
X116000000Y-120000000D02*
X126500000Y-120000000D01*
X105000000Y-109000000D02*
X116000000Y-120000000D01*
X127000000Y-119500000D02*
X127000000Y-113120000D01*
X126500000Y-120000000D02*
X127000000Y-119500000D01*
X127000000Y-113120000D02*
X130120000Y-110000000D01*
%TO.N,Net-(D1-K)*%
X106120000Y-93500000D02*
X116000000Y-93500000D01*
X82000000Y-93000000D02*
X87500000Y-87500000D01*
X87500000Y-87500000D02*
X105000000Y-87500000D01*
X105000000Y-87500000D02*
X106120000Y-88620000D01*
X106120000Y-88620000D02*
X106120000Y-93500000D01*
%TO.N,Net-(D2-K)*%
X90880000Y-93500000D02*
X105000000Y-107620000D01*
X105000000Y-107620000D02*
X105000000Y-109000000D01*
%TO.N,Net-(D1-A)*%
X90120000Y-109000000D02*
X100000000Y-109000000D01*
X71500000Y-125000000D02*
X85000000Y-125000000D01*
X55500000Y-109000000D02*
X71500000Y-125000000D01*
X85000000Y-125000000D02*
X90120000Y-119880000D01*
X90120000Y-119880000D02*
X90120000Y-109000000D01*
%TO.N,Net-(D1-K)*%
X82000000Y-93000000D02*
X82000000Y-101880000D01*
X82000000Y-101880000D02*
X74880000Y-109000000D01*
%TO.N,Net-(C1-Pad1)*%
X55500000Y-93000000D02*
X77000000Y-93000000D01*
%TD*%
M02*
