M48
; DRILL file {KiCad 8.0.7} date 2025-10-03T18:14:04-0700
; FORMAT={-:-/ absolute / inch / decimal}
; #@! TF.CreationDate,2025-10-03T18:14:04-07:00
; #@! TF.GenerationSoftware,Kicad,Pcbnew,8.0.7
; #@! TF.FileFunction,Plated,1,2,PTH
FMAT,2
INCH
; #@! TA.AperFunction,Plated,PTH,ComponentDrill
T1C0.0315
; #@! TA.AperFunction,Plated,PTH,ComponentDrill
T2C0.0630
; #@! TA.AperFunction,Plated,PTH,ComponentDrill
T3C0.1378
%
G90
G05
T1
X3.0315Y-3.6614
X3.2283Y-3.6614
X3.937Y-4.2913
X4.1339Y-4.2913
X4.5669Y-3.6811
X4.7638Y-3.6811
X5.5118Y-4.311
X5.7087Y-4.311
X6.2598Y-3.6811
X6.4567Y-3.6811
X7.2244Y-4.2913
X7.4213Y-4.2913
X7.9724Y-3.6811
X8.1693Y-3.6811
X8.7598Y-4.2717
X8.9567Y-4.2717
T2
X2.948Y-4.2913
X3.548Y-4.2913
X3.578Y-3.6811
X4.178Y-3.6811
X4.5228Y-4.3307
X5.1228Y-4.3307
X5.2071Y-3.6811
X5.8071Y-3.6811
X6.137Y-4.2913
X6.737Y-4.2913
X6.885Y-3.6811
X7.485Y-3.6811
X7.8102Y-4.2913
X8.4102Y-4.2913
X8.5976Y-3.6614
X9.1976Y-3.6614
T3
X2.185Y-3.6614
X2.185Y-4.2913
X10.1181Y-3.563
X10.1181Y-4.4685
M30
