%TF.GenerationSoftware,KiCad,Pcbnew,8.0.7*%
%TF.CreationDate,2025-10-03T18:14:03-07:00*%
%TF.ProjectId,HV Power Supply,48562050-6f77-4657-9220-537570706c79,rev?*%
%TF.SameCoordinates,Original*%
%TF.FileFunction,Soldermask,Top*%
%TF.FilePolarity,Negative*%
%FSLAX46Y46*%
G04 Gerber Fmt 4.6, Leading zero omitted, Abs format (unit mm)*
G04 Created by KiCad (PCBNEW 8.0.7) date 2025-10-03 18:14:03*
%MOMM*%
%LPD*%
G01*
G04 APERTURE LIST*
%ADD10C,4.300000*%
%ADD11C,7.000000*%
%ADD12C,1.600000*%
%ADD13R,3.200000X3.200000*%
%ADD14O,3.200000X3.200000*%
G04 APERTURE END LIST*
D10*
%TO.C,H8*%
X257000000Y-123500000D03*
%TD*%
%TO.C,H7*%
X257000000Y-81000000D03*
%TD*%
%TO.C,H6*%
X55500000Y-124000000D03*
%TD*%
%TO.C,H5*%
X56000000Y-81000000D03*
%TD*%
D11*
%TO.C,H4*%
X257000000Y-90500000D03*
%TD*%
D12*
%TO.C,C7*%
X202500000Y-93500000D03*
X207500000Y-93500000D03*
%TD*%
%TO.C,C5*%
X159000000Y-93500000D03*
X164000000Y-93500000D03*
%TD*%
D11*
%TO.C,H3*%
X257000000Y-113500000D03*
%TD*%
D12*
%TO.C,C1*%
X77000000Y-93000000D03*
X82000000Y-93000000D03*
%TD*%
%TO.C,C4*%
X140000000Y-109500000D03*
X145000000Y-109500000D03*
%TD*%
D13*
%TO.C,D1*%
X74880000Y-109000000D03*
D14*
X90120000Y-109000000D03*
%TD*%
%TO.C,D3*%
X130120000Y-110000000D03*
D13*
X114880000Y-110000000D03*
%TD*%
D14*
%TO.C,D6*%
X190120000Y-93500000D03*
D13*
X174880000Y-93500000D03*
%TD*%
D14*
%TO.C,D5*%
X171120000Y-109000000D03*
D13*
X155880000Y-109000000D03*
%TD*%
D12*
%TO.C,C8*%
X227500000Y-108500000D03*
X222500000Y-108500000D03*
%TD*%
%TO.C,C3*%
X116000000Y-93500000D03*
X121000000Y-93500000D03*
%TD*%
D14*
%TO.C,D7*%
X213620000Y-109000000D03*
D13*
X198380000Y-109000000D03*
%TD*%
D14*
%TO.C,D4*%
X147500000Y-93500000D03*
D13*
X132260000Y-93500000D03*
%TD*%
D12*
%TO.C,C2*%
X100000000Y-109000000D03*
X105000000Y-109000000D03*
%TD*%
D14*
%TO.C,D8*%
X233620000Y-93000000D03*
D13*
X218380000Y-93000000D03*
%TD*%
%TO.C,D2*%
X90880000Y-93500000D03*
D14*
X106120000Y-93500000D03*
%TD*%
D12*
%TO.C,C6*%
X183500000Y-109000000D03*
X188500000Y-109000000D03*
%TD*%
D11*
%TO.C,H1*%
X55500000Y-93000000D03*
%TD*%
%TO.C,H2*%
X55500000Y-109000000D03*
%TD*%
M02*
