%TF.GenerationSoftware,KiCad,Pcbnew,8.0.7*%
%TF.CreationDate,2025-10-03T18:14:02-07:00*%
%TF.ProjectId,HV Power Supply,48562050-6f77-4657-9220-537570706c79,rev?*%
%TF.SameCoordinates,Original*%
%TF.FileFunction,Legend,Top*%
%TF.FilePolarity,Positive*%
%FSLAX46Y46*%
G04 Gerber Fmt 4.6, Leading zero omitted, Abs format (unit mm)*
G04 Created by KiCad (PCBNEW 8.0.7) date 2025-10-03 18:14:02*
%MOMM*%
%LPD*%
G01*
G04 APERTURE LIST*
%ADD10C,0.150000*%
%ADD11C,0.120000*%
G04 APERTURE END LIST*
D10*
X256238095Y-118654819D02*
X256238095Y-117654819D01*
X256238095Y-118131009D02*
X256809523Y-118131009D01*
X256809523Y-118654819D02*
X256809523Y-117654819D01*
X257428571Y-118083390D02*
X257333333Y-118035771D01*
X257333333Y-118035771D02*
X257285714Y-117988152D01*
X257285714Y-117988152D02*
X257238095Y-117892914D01*
X257238095Y-117892914D02*
X257238095Y-117845295D01*
X257238095Y-117845295D02*
X257285714Y-117750057D01*
X257285714Y-117750057D02*
X257333333Y-117702438D01*
X257333333Y-117702438D02*
X257428571Y-117654819D01*
X257428571Y-117654819D02*
X257619047Y-117654819D01*
X257619047Y-117654819D02*
X257714285Y-117702438D01*
X257714285Y-117702438D02*
X257761904Y-117750057D01*
X257761904Y-117750057D02*
X257809523Y-117845295D01*
X257809523Y-117845295D02*
X257809523Y-117892914D01*
X257809523Y-117892914D02*
X257761904Y-117988152D01*
X257761904Y-117988152D02*
X257714285Y-118035771D01*
X257714285Y-118035771D02*
X257619047Y-118083390D01*
X257619047Y-118083390D02*
X257428571Y-118083390D01*
X257428571Y-118083390D02*
X257333333Y-118131009D01*
X257333333Y-118131009D02*
X257285714Y-118178628D01*
X257285714Y-118178628D02*
X257238095Y-118273866D01*
X257238095Y-118273866D02*
X257238095Y-118464342D01*
X257238095Y-118464342D02*
X257285714Y-118559580D01*
X257285714Y-118559580D02*
X257333333Y-118607200D01*
X257333333Y-118607200D02*
X257428571Y-118654819D01*
X257428571Y-118654819D02*
X257619047Y-118654819D01*
X257619047Y-118654819D02*
X257714285Y-118607200D01*
X257714285Y-118607200D02*
X257761904Y-118559580D01*
X257761904Y-118559580D02*
X257809523Y-118464342D01*
X257809523Y-118464342D02*
X257809523Y-118273866D01*
X257809523Y-118273866D02*
X257761904Y-118178628D01*
X257761904Y-118178628D02*
X257714285Y-118131009D01*
X257714285Y-118131009D02*
X257619047Y-118083390D01*
X256238095Y-76154819D02*
X256238095Y-75154819D01*
X256238095Y-75631009D02*
X256809523Y-75631009D01*
X256809523Y-76154819D02*
X256809523Y-75154819D01*
X257190476Y-75154819D02*
X257857142Y-75154819D01*
X257857142Y-75154819D02*
X257428571Y-76154819D01*
X54738095Y-119154819D02*
X54738095Y-118154819D01*
X54738095Y-118631009D02*
X55309523Y-118631009D01*
X55309523Y-119154819D02*
X55309523Y-118154819D01*
X56214285Y-118154819D02*
X56023809Y-118154819D01*
X56023809Y-118154819D02*
X55928571Y-118202438D01*
X55928571Y-118202438D02*
X55880952Y-118250057D01*
X55880952Y-118250057D02*
X55785714Y-118392914D01*
X55785714Y-118392914D02*
X55738095Y-118583390D01*
X55738095Y-118583390D02*
X55738095Y-118964342D01*
X55738095Y-118964342D02*
X55785714Y-119059580D01*
X55785714Y-119059580D02*
X55833333Y-119107200D01*
X55833333Y-119107200D02*
X55928571Y-119154819D01*
X55928571Y-119154819D02*
X56119047Y-119154819D01*
X56119047Y-119154819D02*
X56214285Y-119107200D01*
X56214285Y-119107200D02*
X56261904Y-119059580D01*
X56261904Y-119059580D02*
X56309523Y-118964342D01*
X56309523Y-118964342D02*
X56309523Y-118726247D01*
X56309523Y-118726247D02*
X56261904Y-118631009D01*
X56261904Y-118631009D02*
X56214285Y-118583390D01*
X56214285Y-118583390D02*
X56119047Y-118535771D01*
X56119047Y-118535771D02*
X55928571Y-118535771D01*
X55928571Y-118535771D02*
X55833333Y-118583390D01*
X55833333Y-118583390D02*
X55785714Y-118631009D01*
X55785714Y-118631009D02*
X55738095Y-118726247D01*
X55238095Y-76154819D02*
X55238095Y-75154819D01*
X55238095Y-75631009D02*
X55809523Y-75631009D01*
X55809523Y-76154819D02*
X55809523Y-75154819D01*
X56761904Y-75154819D02*
X56285714Y-75154819D01*
X56285714Y-75154819D02*
X56238095Y-75631009D01*
X56238095Y-75631009D02*
X56285714Y-75583390D01*
X56285714Y-75583390D02*
X56380952Y-75535771D01*
X56380952Y-75535771D02*
X56619047Y-75535771D01*
X56619047Y-75535771D02*
X56714285Y-75583390D01*
X56714285Y-75583390D02*
X56761904Y-75631009D01*
X56761904Y-75631009D02*
X56809523Y-75726247D01*
X56809523Y-75726247D02*
X56809523Y-75964342D01*
X56809523Y-75964342D02*
X56761904Y-76059580D01*
X56761904Y-76059580D02*
X56714285Y-76107200D01*
X56714285Y-76107200D02*
X56619047Y-76154819D01*
X56619047Y-76154819D02*
X56380952Y-76154819D01*
X56380952Y-76154819D02*
X56285714Y-76107200D01*
X56285714Y-76107200D02*
X56238095Y-76059580D01*
X256238095Y-86454819D02*
X256238095Y-85454819D01*
X256238095Y-85931009D02*
X256809523Y-85931009D01*
X256809523Y-86454819D02*
X256809523Y-85454819D01*
X257714285Y-85788152D02*
X257714285Y-86454819D01*
X257476190Y-85407200D02*
X257238095Y-86121485D01*
X257238095Y-86121485D02*
X257857142Y-86121485D01*
X204833333Y-86359580D02*
X204785714Y-86407200D01*
X204785714Y-86407200D02*
X204642857Y-86454819D01*
X204642857Y-86454819D02*
X204547619Y-86454819D01*
X204547619Y-86454819D02*
X204404762Y-86407200D01*
X204404762Y-86407200D02*
X204309524Y-86311961D01*
X204309524Y-86311961D02*
X204261905Y-86216723D01*
X204261905Y-86216723D02*
X204214286Y-86026247D01*
X204214286Y-86026247D02*
X204214286Y-85883390D01*
X204214286Y-85883390D02*
X204261905Y-85692914D01*
X204261905Y-85692914D02*
X204309524Y-85597676D01*
X204309524Y-85597676D02*
X204404762Y-85502438D01*
X204404762Y-85502438D02*
X204547619Y-85454819D01*
X204547619Y-85454819D02*
X204642857Y-85454819D01*
X204642857Y-85454819D02*
X204785714Y-85502438D01*
X204785714Y-85502438D02*
X204833333Y-85550057D01*
X205166667Y-85454819D02*
X205833333Y-85454819D01*
X205833333Y-85454819D02*
X205404762Y-86454819D01*
X161333333Y-86359580D02*
X161285714Y-86407200D01*
X161285714Y-86407200D02*
X161142857Y-86454819D01*
X161142857Y-86454819D02*
X161047619Y-86454819D01*
X161047619Y-86454819D02*
X160904762Y-86407200D01*
X160904762Y-86407200D02*
X160809524Y-86311961D01*
X160809524Y-86311961D02*
X160761905Y-86216723D01*
X160761905Y-86216723D02*
X160714286Y-86026247D01*
X160714286Y-86026247D02*
X160714286Y-85883390D01*
X160714286Y-85883390D02*
X160761905Y-85692914D01*
X160761905Y-85692914D02*
X160809524Y-85597676D01*
X160809524Y-85597676D02*
X160904762Y-85502438D01*
X160904762Y-85502438D02*
X161047619Y-85454819D01*
X161047619Y-85454819D02*
X161142857Y-85454819D01*
X161142857Y-85454819D02*
X161285714Y-85502438D01*
X161285714Y-85502438D02*
X161333333Y-85550057D01*
X162238095Y-85454819D02*
X161761905Y-85454819D01*
X161761905Y-85454819D02*
X161714286Y-85931009D01*
X161714286Y-85931009D02*
X161761905Y-85883390D01*
X161761905Y-85883390D02*
X161857143Y-85835771D01*
X161857143Y-85835771D02*
X162095238Y-85835771D01*
X162095238Y-85835771D02*
X162190476Y-85883390D01*
X162190476Y-85883390D02*
X162238095Y-85931009D01*
X162238095Y-85931009D02*
X162285714Y-86026247D01*
X162285714Y-86026247D02*
X162285714Y-86264342D01*
X162285714Y-86264342D02*
X162238095Y-86359580D01*
X162238095Y-86359580D02*
X162190476Y-86407200D01*
X162190476Y-86407200D02*
X162095238Y-86454819D01*
X162095238Y-86454819D02*
X161857143Y-86454819D01*
X161857143Y-86454819D02*
X161761905Y-86407200D01*
X161761905Y-86407200D02*
X161714286Y-86359580D01*
X256238095Y-109454819D02*
X256238095Y-108454819D01*
X256238095Y-108931009D02*
X256809523Y-108931009D01*
X256809523Y-109454819D02*
X256809523Y-108454819D01*
X257190476Y-108454819D02*
X257809523Y-108454819D01*
X257809523Y-108454819D02*
X257476190Y-108835771D01*
X257476190Y-108835771D02*
X257619047Y-108835771D01*
X257619047Y-108835771D02*
X257714285Y-108883390D01*
X257714285Y-108883390D02*
X257761904Y-108931009D01*
X257761904Y-108931009D02*
X257809523Y-109026247D01*
X257809523Y-109026247D02*
X257809523Y-109264342D01*
X257809523Y-109264342D02*
X257761904Y-109359580D01*
X257761904Y-109359580D02*
X257714285Y-109407200D01*
X257714285Y-109407200D02*
X257619047Y-109454819D01*
X257619047Y-109454819D02*
X257333333Y-109454819D01*
X257333333Y-109454819D02*
X257238095Y-109407200D01*
X257238095Y-109407200D02*
X257190476Y-109359580D01*
X79333333Y-85859580D02*
X79285714Y-85907200D01*
X79285714Y-85907200D02*
X79142857Y-85954819D01*
X79142857Y-85954819D02*
X79047619Y-85954819D01*
X79047619Y-85954819D02*
X78904762Y-85907200D01*
X78904762Y-85907200D02*
X78809524Y-85811961D01*
X78809524Y-85811961D02*
X78761905Y-85716723D01*
X78761905Y-85716723D02*
X78714286Y-85526247D01*
X78714286Y-85526247D02*
X78714286Y-85383390D01*
X78714286Y-85383390D02*
X78761905Y-85192914D01*
X78761905Y-85192914D02*
X78809524Y-85097676D01*
X78809524Y-85097676D02*
X78904762Y-85002438D01*
X78904762Y-85002438D02*
X79047619Y-84954819D01*
X79047619Y-84954819D02*
X79142857Y-84954819D01*
X79142857Y-84954819D02*
X79285714Y-85002438D01*
X79285714Y-85002438D02*
X79333333Y-85050057D01*
X80285714Y-85954819D02*
X79714286Y-85954819D01*
X80000000Y-85954819D02*
X80000000Y-84954819D01*
X80000000Y-84954819D02*
X79904762Y-85097676D01*
X79904762Y-85097676D02*
X79809524Y-85192914D01*
X79809524Y-85192914D02*
X79714286Y-85240533D01*
X142333333Y-102359580D02*
X142285714Y-102407200D01*
X142285714Y-102407200D02*
X142142857Y-102454819D01*
X142142857Y-102454819D02*
X142047619Y-102454819D01*
X142047619Y-102454819D02*
X141904762Y-102407200D01*
X141904762Y-102407200D02*
X141809524Y-102311961D01*
X141809524Y-102311961D02*
X141761905Y-102216723D01*
X141761905Y-102216723D02*
X141714286Y-102026247D01*
X141714286Y-102026247D02*
X141714286Y-101883390D01*
X141714286Y-101883390D02*
X141761905Y-101692914D01*
X141761905Y-101692914D02*
X141809524Y-101597676D01*
X141809524Y-101597676D02*
X141904762Y-101502438D01*
X141904762Y-101502438D02*
X142047619Y-101454819D01*
X142047619Y-101454819D02*
X142142857Y-101454819D01*
X142142857Y-101454819D02*
X142285714Y-101502438D01*
X142285714Y-101502438D02*
X142333333Y-101550057D01*
X143190476Y-101788152D02*
X143190476Y-102454819D01*
X142952381Y-101407200D02*
X142714286Y-102121485D01*
X142714286Y-102121485D02*
X143333333Y-102121485D01*
X81761905Y-105734819D02*
X81761905Y-104734819D01*
X81761905Y-104734819D02*
X82000000Y-104734819D01*
X82000000Y-104734819D02*
X82142857Y-104782438D01*
X82142857Y-104782438D02*
X82238095Y-104877676D01*
X82238095Y-104877676D02*
X82285714Y-104972914D01*
X82285714Y-104972914D02*
X82333333Y-105163390D01*
X82333333Y-105163390D02*
X82333333Y-105306247D01*
X82333333Y-105306247D02*
X82285714Y-105496723D01*
X82285714Y-105496723D02*
X82238095Y-105591961D01*
X82238095Y-105591961D02*
X82142857Y-105687200D01*
X82142857Y-105687200D02*
X82000000Y-105734819D01*
X82000000Y-105734819D02*
X81761905Y-105734819D01*
X83285714Y-105734819D02*
X82714286Y-105734819D01*
X83000000Y-105734819D02*
X83000000Y-104734819D01*
X83000000Y-104734819D02*
X82904762Y-104877676D01*
X82904762Y-104877676D02*
X82809524Y-104972914D01*
X82809524Y-104972914D02*
X82714286Y-105020533D01*
X74618095Y-106854819D02*
X74618095Y-105854819D01*
X75189523Y-106854819D02*
X74760952Y-106283390D01*
X75189523Y-105854819D02*
X74618095Y-106426247D01*
X121761905Y-106734819D02*
X121761905Y-105734819D01*
X121761905Y-105734819D02*
X122000000Y-105734819D01*
X122000000Y-105734819D02*
X122142857Y-105782438D01*
X122142857Y-105782438D02*
X122238095Y-105877676D01*
X122238095Y-105877676D02*
X122285714Y-105972914D01*
X122285714Y-105972914D02*
X122333333Y-106163390D01*
X122333333Y-106163390D02*
X122333333Y-106306247D01*
X122333333Y-106306247D02*
X122285714Y-106496723D01*
X122285714Y-106496723D02*
X122238095Y-106591961D01*
X122238095Y-106591961D02*
X122142857Y-106687200D01*
X122142857Y-106687200D02*
X122000000Y-106734819D01*
X122000000Y-106734819D02*
X121761905Y-106734819D01*
X122666667Y-105734819D02*
X123285714Y-105734819D01*
X123285714Y-105734819D02*
X122952381Y-106115771D01*
X122952381Y-106115771D02*
X123095238Y-106115771D01*
X123095238Y-106115771D02*
X123190476Y-106163390D01*
X123190476Y-106163390D02*
X123238095Y-106211009D01*
X123238095Y-106211009D02*
X123285714Y-106306247D01*
X123285714Y-106306247D02*
X123285714Y-106544342D01*
X123285714Y-106544342D02*
X123238095Y-106639580D01*
X123238095Y-106639580D02*
X123190476Y-106687200D01*
X123190476Y-106687200D02*
X123095238Y-106734819D01*
X123095238Y-106734819D02*
X122809524Y-106734819D01*
X122809524Y-106734819D02*
X122714286Y-106687200D01*
X122714286Y-106687200D02*
X122666667Y-106639580D01*
X114618095Y-107854819D02*
X114618095Y-106854819D01*
X115189523Y-107854819D02*
X114760952Y-107283390D01*
X115189523Y-106854819D02*
X114618095Y-107426247D01*
X181761905Y-90234819D02*
X181761905Y-89234819D01*
X181761905Y-89234819D02*
X182000000Y-89234819D01*
X182000000Y-89234819D02*
X182142857Y-89282438D01*
X182142857Y-89282438D02*
X182238095Y-89377676D01*
X182238095Y-89377676D02*
X182285714Y-89472914D01*
X182285714Y-89472914D02*
X182333333Y-89663390D01*
X182333333Y-89663390D02*
X182333333Y-89806247D01*
X182333333Y-89806247D02*
X182285714Y-89996723D01*
X182285714Y-89996723D02*
X182238095Y-90091961D01*
X182238095Y-90091961D02*
X182142857Y-90187200D01*
X182142857Y-90187200D02*
X182000000Y-90234819D01*
X182000000Y-90234819D02*
X181761905Y-90234819D01*
X183190476Y-89234819D02*
X183000000Y-89234819D01*
X183000000Y-89234819D02*
X182904762Y-89282438D01*
X182904762Y-89282438D02*
X182857143Y-89330057D01*
X182857143Y-89330057D02*
X182761905Y-89472914D01*
X182761905Y-89472914D02*
X182714286Y-89663390D01*
X182714286Y-89663390D02*
X182714286Y-90044342D01*
X182714286Y-90044342D02*
X182761905Y-90139580D01*
X182761905Y-90139580D02*
X182809524Y-90187200D01*
X182809524Y-90187200D02*
X182904762Y-90234819D01*
X182904762Y-90234819D02*
X183095238Y-90234819D01*
X183095238Y-90234819D02*
X183190476Y-90187200D01*
X183190476Y-90187200D02*
X183238095Y-90139580D01*
X183238095Y-90139580D02*
X183285714Y-90044342D01*
X183285714Y-90044342D02*
X183285714Y-89806247D01*
X183285714Y-89806247D02*
X183238095Y-89711009D01*
X183238095Y-89711009D02*
X183190476Y-89663390D01*
X183190476Y-89663390D02*
X183095238Y-89615771D01*
X183095238Y-89615771D02*
X182904762Y-89615771D01*
X182904762Y-89615771D02*
X182809524Y-89663390D01*
X182809524Y-89663390D02*
X182761905Y-89711009D01*
X182761905Y-89711009D02*
X182714286Y-89806247D01*
X174618095Y-91354819D02*
X174618095Y-90354819D01*
X175189523Y-91354819D02*
X174760952Y-90783390D01*
X175189523Y-90354819D02*
X174618095Y-90926247D01*
X162761905Y-105734819D02*
X162761905Y-104734819D01*
X162761905Y-104734819D02*
X163000000Y-104734819D01*
X163000000Y-104734819D02*
X163142857Y-104782438D01*
X163142857Y-104782438D02*
X163238095Y-104877676D01*
X163238095Y-104877676D02*
X163285714Y-104972914D01*
X163285714Y-104972914D02*
X163333333Y-105163390D01*
X163333333Y-105163390D02*
X163333333Y-105306247D01*
X163333333Y-105306247D02*
X163285714Y-105496723D01*
X163285714Y-105496723D02*
X163238095Y-105591961D01*
X163238095Y-105591961D02*
X163142857Y-105687200D01*
X163142857Y-105687200D02*
X163000000Y-105734819D01*
X163000000Y-105734819D02*
X162761905Y-105734819D01*
X164238095Y-104734819D02*
X163761905Y-104734819D01*
X163761905Y-104734819D02*
X163714286Y-105211009D01*
X163714286Y-105211009D02*
X163761905Y-105163390D01*
X163761905Y-105163390D02*
X163857143Y-105115771D01*
X163857143Y-105115771D02*
X164095238Y-105115771D01*
X164095238Y-105115771D02*
X164190476Y-105163390D01*
X164190476Y-105163390D02*
X164238095Y-105211009D01*
X164238095Y-105211009D02*
X164285714Y-105306247D01*
X164285714Y-105306247D02*
X164285714Y-105544342D01*
X164285714Y-105544342D02*
X164238095Y-105639580D01*
X164238095Y-105639580D02*
X164190476Y-105687200D01*
X164190476Y-105687200D02*
X164095238Y-105734819D01*
X164095238Y-105734819D02*
X163857143Y-105734819D01*
X163857143Y-105734819D02*
X163761905Y-105687200D01*
X163761905Y-105687200D02*
X163714286Y-105639580D01*
X155618095Y-106854819D02*
X155618095Y-105854819D01*
X156189523Y-106854819D02*
X155760952Y-106283390D01*
X156189523Y-105854819D02*
X155618095Y-106426247D01*
X224833333Y-101359580D02*
X224785714Y-101407200D01*
X224785714Y-101407200D02*
X224642857Y-101454819D01*
X224642857Y-101454819D02*
X224547619Y-101454819D01*
X224547619Y-101454819D02*
X224404762Y-101407200D01*
X224404762Y-101407200D02*
X224309524Y-101311961D01*
X224309524Y-101311961D02*
X224261905Y-101216723D01*
X224261905Y-101216723D02*
X224214286Y-101026247D01*
X224214286Y-101026247D02*
X224214286Y-100883390D01*
X224214286Y-100883390D02*
X224261905Y-100692914D01*
X224261905Y-100692914D02*
X224309524Y-100597676D01*
X224309524Y-100597676D02*
X224404762Y-100502438D01*
X224404762Y-100502438D02*
X224547619Y-100454819D01*
X224547619Y-100454819D02*
X224642857Y-100454819D01*
X224642857Y-100454819D02*
X224785714Y-100502438D01*
X224785714Y-100502438D02*
X224833333Y-100550057D01*
X225404762Y-100883390D02*
X225309524Y-100835771D01*
X225309524Y-100835771D02*
X225261905Y-100788152D01*
X225261905Y-100788152D02*
X225214286Y-100692914D01*
X225214286Y-100692914D02*
X225214286Y-100645295D01*
X225214286Y-100645295D02*
X225261905Y-100550057D01*
X225261905Y-100550057D02*
X225309524Y-100502438D01*
X225309524Y-100502438D02*
X225404762Y-100454819D01*
X225404762Y-100454819D02*
X225595238Y-100454819D01*
X225595238Y-100454819D02*
X225690476Y-100502438D01*
X225690476Y-100502438D02*
X225738095Y-100550057D01*
X225738095Y-100550057D02*
X225785714Y-100645295D01*
X225785714Y-100645295D02*
X225785714Y-100692914D01*
X225785714Y-100692914D02*
X225738095Y-100788152D01*
X225738095Y-100788152D02*
X225690476Y-100835771D01*
X225690476Y-100835771D02*
X225595238Y-100883390D01*
X225595238Y-100883390D02*
X225404762Y-100883390D01*
X225404762Y-100883390D02*
X225309524Y-100931009D01*
X225309524Y-100931009D02*
X225261905Y-100978628D01*
X225261905Y-100978628D02*
X225214286Y-101073866D01*
X225214286Y-101073866D02*
X225214286Y-101264342D01*
X225214286Y-101264342D02*
X225261905Y-101359580D01*
X225261905Y-101359580D02*
X225309524Y-101407200D01*
X225309524Y-101407200D02*
X225404762Y-101454819D01*
X225404762Y-101454819D02*
X225595238Y-101454819D01*
X225595238Y-101454819D02*
X225690476Y-101407200D01*
X225690476Y-101407200D02*
X225738095Y-101359580D01*
X225738095Y-101359580D02*
X225785714Y-101264342D01*
X225785714Y-101264342D02*
X225785714Y-101073866D01*
X225785714Y-101073866D02*
X225738095Y-100978628D01*
X225738095Y-100978628D02*
X225690476Y-100931009D01*
X225690476Y-100931009D02*
X225595238Y-100883390D01*
X118333333Y-86359580D02*
X118285714Y-86407200D01*
X118285714Y-86407200D02*
X118142857Y-86454819D01*
X118142857Y-86454819D02*
X118047619Y-86454819D01*
X118047619Y-86454819D02*
X117904762Y-86407200D01*
X117904762Y-86407200D02*
X117809524Y-86311961D01*
X117809524Y-86311961D02*
X117761905Y-86216723D01*
X117761905Y-86216723D02*
X117714286Y-86026247D01*
X117714286Y-86026247D02*
X117714286Y-85883390D01*
X117714286Y-85883390D02*
X117761905Y-85692914D01*
X117761905Y-85692914D02*
X117809524Y-85597676D01*
X117809524Y-85597676D02*
X117904762Y-85502438D01*
X117904762Y-85502438D02*
X118047619Y-85454819D01*
X118047619Y-85454819D02*
X118142857Y-85454819D01*
X118142857Y-85454819D02*
X118285714Y-85502438D01*
X118285714Y-85502438D02*
X118333333Y-85550057D01*
X118666667Y-85454819D02*
X119285714Y-85454819D01*
X119285714Y-85454819D02*
X118952381Y-85835771D01*
X118952381Y-85835771D02*
X119095238Y-85835771D01*
X119095238Y-85835771D02*
X119190476Y-85883390D01*
X119190476Y-85883390D02*
X119238095Y-85931009D01*
X119238095Y-85931009D02*
X119285714Y-86026247D01*
X119285714Y-86026247D02*
X119285714Y-86264342D01*
X119285714Y-86264342D02*
X119238095Y-86359580D01*
X119238095Y-86359580D02*
X119190476Y-86407200D01*
X119190476Y-86407200D02*
X119095238Y-86454819D01*
X119095238Y-86454819D02*
X118809524Y-86454819D01*
X118809524Y-86454819D02*
X118714286Y-86407200D01*
X118714286Y-86407200D02*
X118666667Y-86359580D01*
X205261905Y-105734819D02*
X205261905Y-104734819D01*
X205261905Y-104734819D02*
X205500000Y-104734819D01*
X205500000Y-104734819D02*
X205642857Y-104782438D01*
X205642857Y-104782438D02*
X205738095Y-104877676D01*
X205738095Y-104877676D02*
X205785714Y-104972914D01*
X205785714Y-104972914D02*
X205833333Y-105163390D01*
X205833333Y-105163390D02*
X205833333Y-105306247D01*
X205833333Y-105306247D02*
X205785714Y-105496723D01*
X205785714Y-105496723D02*
X205738095Y-105591961D01*
X205738095Y-105591961D02*
X205642857Y-105687200D01*
X205642857Y-105687200D02*
X205500000Y-105734819D01*
X205500000Y-105734819D02*
X205261905Y-105734819D01*
X206166667Y-104734819D02*
X206833333Y-104734819D01*
X206833333Y-104734819D02*
X206404762Y-105734819D01*
X198118095Y-106854819D02*
X198118095Y-105854819D01*
X198689523Y-106854819D02*
X198260952Y-106283390D01*
X198689523Y-105854819D02*
X198118095Y-106426247D01*
X139141905Y-90234819D02*
X139141905Y-89234819D01*
X139141905Y-89234819D02*
X139380000Y-89234819D01*
X139380000Y-89234819D02*
X139522857Y-89282438D01*
X139522857Y-89282438D02*
X139618095Y-89377676D01*
X139618095Y-89377676D02*
X139665714Y-89472914D01*
X139665714Y-89472914D02*
X139713333Y-89663390D01*
X139713333Y-89663390D02*
X139713333Y-89806247D01*
X139713333Y-89806247D02*
X139665714Y-89996723D01*
X139665714Y-89996723D02*
X139618095Y-90091961D01*
X139618095Y-90091961D02*
X139522857Y-90187200D01*
X139522857Y-90187200D02*
X139380000Y-90234819D01*
X139380000Y-90234819D02*
X139141905Y-90234819D01*
X140570476Y-89568152D02*
X140570476Y-90234819D01*
X140332381Y-89187200D02*
X140094286Y-89901485D01*
X140094286Y-89901485D02*
X140713333Y-89901485D01*
X131998095Y-91354819D02*
X131998095Y-90354819D01*
X132569523Y-91354819D02*
X132140952Y-90783390D01*
X132569523Y-90354819D02*
X131998095Y-90926247D01*
X102333333Y-101859580D02*
X102285714Y-101907200D01*
X102285714Y-101907200D02*
X102142857Y-101954819D01*
X102142857Y-101954819D02*
X102047619Y-101954819D01*
X102047619Y-101954819D02*
X101904762Y-101907200D01*
X101904762Y-101907200D02*
X101809524Y-101811961D01*
X101809524Y-101811961D02*
X101761905Y-101716723D01*
X101761905Y-101716723D02*
X101714286Y-101526247D01*
X101714286Y-101526247D02*
X101714286Y-101383390D01*
X101714286Y-101383390D02*
X101761905Y-101192914D01*
X101761905Y-101192914D02*
X101809524Y-101097676D01*
X101809524Y-101097676D02*
X101904762Y-101002438D01*
X101904762Y-101002438D02*
X102047619Y-100954819D01*
X102047619Y-100954819D02*
X102142857Y-100954819D01*
X102142857Y-100954819D02*
X102285714Y-101002438D01*
X102285714Y-101002438D02*
X102333333Y-101050057D01*
X102714286Y-101050057D02*
X102761905Y-101002438D01*
X102761905Y-101002438D02*
X102857143Y-100954819D01*
X102857143Y-100954819D02*
X103095238Y-100954819D01*
X103095238Y-100954819D02*
X103190476Y-101002438D01*
X103190476Y-101002438D02*
X103238095Y-101050057D01*
X103238095Y-101050057D02*
X103285714Y-101145295D01*
X103285714Y-101145295D02*
X103285714Y-101240533D01*
X103285714Y-101240533D02*
X103238095Y-101383390D01*
X103238095Y-101383390D02*
X102666667Y-101954819D01*
X102666667Y-101954819D02*
X103285714Y-101954819D01*
X225261905Y-89734819D02*
X225261905Y-88734819D01*
X225261905Y-88734819D02*
X225500000Y-88734819D01*
X225500000Y-88734819D02*
X225642857Y-88782438D01*
X225642857Y-88782438D02*
X225738095Y-88877676D01*
X225738095Y-88877676D02*
X225785714Y-88972914D01*
X225785714Y-88972914D02*
X225833333Y-89163390D01*
X225833333Y-89163390D02*
X225833333Y-89306247D01*
X225833333Y-89306247D02*
X225785714Y-89496723D01*
X225785714Y-89496723D02*
X225738095Y-89591961D01*
X225738095Y-89591961D02*
X225642857Y-89687200D01*
X225642857Y-89687200D02*
X225500000Y-89734819D01*
X225500000Y-89734819D02*
X225261905Y-89734819D01*
X226404762Y-89163390D02*
X226309524Y-89115771D01*
X226309524Y-89115771D02*
X226261905Y-89068152D01*
X226261905Y-89068152D02*
X226214286Y-88972914D01*
X226214286Y-88972914D02*
X226214286Y-88925295D01*
X226214286Y-88925295D02*
X226261905Y-88830057D01*
X226261905Y-88830057D02*
X226309524Y-88782438D01*
X226309524Y-88782438D02*
X226404762Y-88734819D01*
X226404762Y-88734819D02*
X226595238Y-88734819D01*
X226595238Y-88734819D02*
X226690476Y-88782438D01*
X226690476Y-88782438D02*
X226738095Y-88830057D01*
X226738095Y-88830057D02*
X226785714Y-88925295D01*
X226785714Y-88925295D02*
X226785714Y-88972914D01*
X226785714Y-88972914D02*
X226738095Y-89068152D01*
X226738095Y-89068152D02*
X226690476Y-89115771D01*
X226690476Y-89115771D02*
X226595238Y-89163390D01*
X226595238Y-89163390D02*
X226404762Y-89163390D01*
X226404762Y-89163390D02*
X226309524Y-89211009D01*
X226309524Y-89211009D02*
X226261905Y-89258628D01*
X226261905Y-89258628D02*
X226214286Y-89353866D01*
X226214286Y-89353866D02*
X226214286Y-89544342D01*
X226214286Y-89544342D02*
X226261905Y-89639580D01*
X226261905Y-89639580D02*
X226309524Y-89687200D01*
X226309524Y-89687200D02*
X226404762Y-89734819D01*
X226404762Y-89734819D02*
X226595238Y-89734819D01*
X226595238Y-89734819D02*
X226690476Y-89687200D01*
X226690476Y-89687200D02*
X226738095Y-89639580D01*
X226738095Y-89639580D02*
X226785714Y-89544342D01*
X226785714Y-89544342D02*
X226785714Y-89353866D01*
X226785714Y-89353866D02*
X226738095Y-89258628D01*
X226738095Y-89258628D02*
X226690476Y-89211009D01*
X226690476Y-89211009D02*
X226595238Y-89163390D01*
X218118095Y-90854819D02*
X218118095Y-89854819D01*
X218689523Y-90854819D02*
X218260952Y-90283390D01*
X218689523Y-89854819D02*
X218118095Y-90426247D01*
X97761905Y-90234819D02*
X97761905Y-89234819D01*
X97761905Y-89234819D02*
X98000000Y-89234819D01*
X98000000Y-89234819D02*
X98142857Y-89282438D01*
X98142857Y-89282438D02*
X98238095Y-89377676D01*
X98238095Y-89377676D02*
X98285714Y-89472914D01*
X98285714Y-89472914D02*
X98333333Y-89663390D01*
X98333333Y-89663390D02*
X98333333Y-89806247D01*
X98333333Y-89806247D02*
X98285714Y-89996723D01*
X98285714Y-89996723D02*
X98238095Y-90091961D01*
X98238095Y-90091961D02*
X98142857Y-90187200D01*
X98142857Y-90187200D02*
X98000000Y-90234819D01*
X98000000Y-90234819D02*
X97761905Y-90234819D01*
X98714286Y-89330057D02*
X98761905Y-89282438D01*
X98761905Y-89282438D02*
X98857143Y-89234819D01*
X98857143Y-89234819D02*
X99095238Y-89234819D01*
X99095238Y-89234819D02*
X99190476Y-89282438D01*
X99190476Y-89282438D02*
X99238095Y-89330057D01*
X99238095Y-89330057D02*
X99285714Y-89425295D01*
X99285714Y-89425295D02*
X99285714Y-89520533D01*
X99285714Y-89520533D02*
X99238095Y-89663390D01*
X99238095Y-89663390D02*
X98666667Y-90234819D01*
X98666667Y-90234819D02*
X99285714Y-90234819D01*
X90618095Y-91354819D02*
X90618095Y-90354819D01*
X91189523Y-91354819D02*
X90760952Y-90783390D01*
X91189523Y-90354819D02*
X90618095Y-90926247D01*
X185833333Y-101859580D02*
X185785714Y-101907200D01*
X185785714Y-101907200D02*
X185642857Y-101954819D01*
X185642857Y-101954819D02*
X185547619Y-101954819D01*
X185547619Y-101954819D02*
X185404762Y-101907200D01*
X185404762Y-101907200D02*
X185309524Y-101811961D01*
X185309524Y-101811961D02*
X185261905Y-101716723D01*
X185261905Y-101716723D02*
X185214286Y-101526247D01*
X185214286Y-101526247D02*
X185214286Y-101383390D01*
X185214286Y-101383390D02*
X185261905Y-101192914D01*
X185261905Y-101192914D02*
X185309524Y-101097676D01*
X185309524Y-101097676D02*
X185404762Y-101002438D01*
X185404762Y-101002438D02*
X185547619Y-100954819D01*
X185547619Y-100954819D02*
X185642857Y-100954819D01*
X185642857Y-100954819D02*
X185785714Y-101002438D01*
X185785714Y-101002438D02*
X185833333Y-101050057D01*
X186690476Y-100954819D02*
X186500000Y-100954819D01*
X186500000Y-100954819D02*
X186404762Y-101002438D01*
X186404762Y-101002438D02*
X186357143Y-101050057D01*
X186357143Y-101050057D02*
X186261905Y-101192914D01*
X186261905Y-101192914D02*
X186214286Y-101383390D01*
X186214286Y-101383390D02*
X186214286Y-101764342D01*
X186214286Y-101764342D02*
X186261905Y-101859580D01*
X186261905Y-101859580D02*
X186309524Y-101907200D01*
X186309524Y-101907200D02*
X186404762Y-101954819D01*
X186404762Y-101954819D02*
X186595238Y-101954819D01*
X186595238Y-101954819D02*
X186690476Y-101907200D01*
X186690476Y-101907200D02*
X186738095Y-101859580D01*
X186738095Y-101859580D02*
X186785714Y-101764342D01*
X186785714Y-101764342D02*
X186785714Y-101526247D01*
X186785714Y-101526247D02*
X186738095Y-101431009D01*
X186738095Y-101431009D02*
X186690476Y-101383390D01*
X186690476Y-101383390D02*
X186595238Y-101335771D01*
X186595238Y-101335771D02*
X186404762Y-101335771D01*
X186404762Y-101335771D02*
X186309524Y-101383390D01*
X186309524Y-101383390D02*
X186261905Y-101431009D01*
X186261905Y-101431009D02*
X186214286Y-101526247D01*
X54738095Y-88954819D02*
X54738095Y-87954819D01*
X54738095Y-88431009D02*
X55309523Y-88431009D01*
X55309523Y-88954819D02*
X55309523Y-87954819D01*
X56309523Y-88954819D02*
X55738095Y-88954819D01*
X56023809Y-88954819D02*
X56023809Y-87954819D01*
X56023809Y-87954819D02*
X55928571Y-88097676D01*
X55928571Y-88097676D02*
X55833333Y-88192914D01*
X55833333Y-88192914D02*
X55738095Y-88240533D01*
X54738095Y-104954819D02*
X54738095Y-103954819D01*
X54738095Y-104431009D02*
X55309523Y-104431009D01*
X55309523Y-104954819D02*
X55309523Y-103954819D01*
X55738095Y-104050057D02*
X55785714Y-104002438D01*
X55785714Y-104002438D02*
X55880952Y-103954819D01*
X55880952Y-103954819D02*
X56119047Y-103954819D01*
X56119047Y-103954819D02*
X56214285Y-104002438D01*
X56214285Y-104002438D02*
X56261904Y-104050057D01*
X56261904Y-104050057D02*
X56309523Y-104145295D01*
X56309523Y-104145295D02*
X56309523Y-104240533D01*
X56309523Y-104240533D02*
X56261904Y-104383390D01*
X56261904Y-104383390D02*
X55690476Y-104954819D01*
X55690476Y-104954819D02*
X56309523Y-104954819D01*
D11*
%TO.C,C7*%
X211370000Y-93500000D02*
G75*
G02*
X198630000Y-93500000I-6370000J0D01*
G01*
X198630000Y-93500000D02*
G75*
G02*
X211370000Y-93500000I6370000J0D01*
G01*
%TO.C,C5*%
X167870000Y-93500000D02*
G75*
G02*
X155130000Y-93500000I-6370000J0D01*
G01*
X155130000Y-93500000D02*
G75*
G02*
X167870000Y-93500000I6370000J0D01*
G01*
%TO.C,C1*%
X85870000Y-93000000D02*
G75*
G02*
X73130000Y-93000000I-6370000J0D01*
G01*
X73130000Y-93000000D02*
G75*
G02*
X85870000Y-93000000I6370000J0D01*
G01*
%TO.C,C4*%
X148870000Y-109500000D02*
G75*
G02*
X136130000Y-109500000I-6370000J0D01*
G01*
X136130000Y-109500000D02*
G75*
G02*
X148870000Y-109500000I6370000J0D01*
G01*
%TO.C,D1*%
X76720000Y-109000000D02*
X77630000Y-109000000D01*
X77630000Y-106280000D02*
X77630000Y-111720000D01*
X77630000Y-111720000D02*
X87370000Y-111720000D01*
X79055000Y-106280000D02*
X79055000Y-111720000D01*
X79175000Y-106280000D02*
X79175000Y-111720000D01*
X79295000Y-106280000D02*
X79295000Y-111720000D01*
X87370000Y-106280000D02*
X77630000Y-106280000D01*
X87370000Y-111720000D02*
X87370000Y-106280000D01*
X88280000Y-109000000D02*
X87370000Y-109000000D01*
%TO.C,D3*%
X128280000Y-110000000D02*
X127370000Y-110000000D01*
X127370000Y-112720000D02*
X127370000Y-107280000D01*
X127370000Y-107280000D02*
X117630000Y-107280000D01*
X119295000Y-107280000D02*
X119295000Y-112720000D01*
X119175000Y-107280000D02*
X119175000Y-112720000D01*
X119055000Y-107280000D02*
X119055000Y-112720000D01*
X117630000Y-112720000D02*
X127370000Y-112720000D01*
X117630000Y-107280000D02*
X117630000Y-112720000D01*
X116720000Y-110000000D02*
X117630000Y-110000000D01*
%TO.C,D6*%
X188280000Y-93500000D02*
X187370000Y-93500000D01*
X187370000Y-96220000D02*
X187370000Y-90780000D01*
X187370000Y-90780000D02*
X177630000Y-90780000D01*
X179295000Y-90780000D02*
X179295000Y-96220000D01*
X179175000Y-90780000D02*
X179175000Y-96220000D01*
X179055000Y-90780000D02*
X179055000Y-96220000D01*
X177630000Y-96220000D02*
X187370000Y-96220000D01*
X177630000Y-90780000D02*
X177630000Y-96220000D01*
X176720000Y-93500000D02*
X177630000Y-93500000D01*
%TO.C,D5*%
X169280000Y-109000000D02*
X168370000Y-109000000D01*
X168370000Y-111720000D02*
X168370000Y-106280000D01*
X168370000Y-106280000D02*
X158630000Y-106280000D01*
X160295000Y-106280000D02*
X160295000Y-111720000D01*
X160175000Y-106280000D02*
X160175000Y-111720000D01*
X160055000Y-106280000D02*
X160055000Y-111720000D01*
X158630000Y-111720000D02*
X168370000Y-111720000D01*
X158630000Y-106280000D02*
X158630000Y-111720000D01*
X157720000Y-109000000D02*
X158630000Y-109000000D01*
%TO.C,C8*%
X231370000Y-108500000D02*
G75*
G02*
X218630000Y-108500000I-6370000J0D01*
G01*
X218630000Y-108500000D02*
G75*
G02*
X231370000Y-108500000I6370000J0D01*
G01*
%TO.C,C3*%
X124870000Y-93500000D02*
G75*
G02*
X112130000Y-93500000I-6370000J0D01*
G01*
X112130000Y-93500000D02*
G75*
G02*
X124870000Y-93500000I6370000J0D01*
G01*
%TO.C,D7*%
X211780000Y-109000000D02*
X210870000Y-109000000D01*
X210870000Y-111720000D02*
X210870000Y-106280000D01*
X210870000Y-106280000D02*
X201130000Y-106280000D01*
X202795000Y-106280000D02*
X202795000Y-111720000D01*
X202675000Y-106280000D02*
X202675000Y-111720000D01*
X202555000Y-106280000D02*
X202555000Y-111720000D01*
X201130000Y-111720000D02*
X210870000Y-111720000D01*
X201130000Y-106280000D02*
X201130000Y-111720000D01*
X200220000Y-109000000D02*
X201130000Y-109000000D01*
%TO.C,D4*%
X145660000Y-93500000D02*
X144750000Y-93500000D01*
X144750000Y-96220000D02*
X144750000Y-90780000D01*
X144750000Y-90780000D02*
X135010000Y-90780000D01*
X136675000Y-90780000D02*
X136675000Y-96220000D01*
X136555000Y-90780000D02*
X136555000Y-96220000D01*
X136435000Y-90780000D02*
X136435000Y-96220000D01*
X135010000Y-96220000D02*
X144750000Y-96220000D01*
X135010000Y-90780000D02*
X135010000Y-96220000D01*
X134100000Y-93500000D02*
X135010000Y-93500000D01*
%TO.C,C2*%
X108870000Y-109000000D02*
G75*
G02*
X96130000Y-109000000I-6370000J0D01*
G01*
X96130000Y-109000000D02*
G75*
G02*
X108870000Y-109000000I6370000J0D01*
G01*
%TO.C,D8*%
X231780000Y-93000000D02*
X230870000Y-93000000D01*
X230870000Y-95720000D02*
X230870000Y-90280000D01*
X230870000Y-90280000D02*
X221130000Y-90280000D01*
X222795000Y-90280000D02*
X222795000Y-95720000D01*
X222675000Y-90280000D02*
X222675000Y-95720000D01*
X222555000Y-90280000D02*
X222555000Y-95720000D01*
X221130000Y-95720000D02*
X230870000Y-95720000D01*
X221130000Y-90280000D02*
X221130000Y-95720000D01*
X220220000Y-93000000D02*
X221130000Y-93000000D01*
%TO.C,D2*%
X92720000Y-93500000D02*
X93630000Y-93500000D01*
X93630000Y-90780000D02*
X93630000Y-96220000D01*
X93630000Y-96220000D02*
X103370000Y-96220000D01*
X95055000Y-90780000D02*
X95055000Y-96220000D01*
X95175000Y-90780000D02*
X95175000Y-96220000D01*
X95295000Y-90780000D02*
X95295000Y-96220000D01*
X103370000Y-90780000D02*
X93630000Y-90780000D01*
X103370000Y-96220000D02*
X103370000Y-90780000D01*
X104280000Y-93500000D02*
X103370000Y-93500000D01*
%TO.C,C6*%
X192370000Y-109000000D02*
G75*
G02*
X179630000Y-109000000I-6370000J0D01*
G01*
X179630000Y-109000000D02*
G75*
G02*
X192370000Y-109000000I6370000J0D01*
G01*
%TD*%
M02*
